<?xml version="1.0" standalone="no"?>
<!DOCTYPE svg PUBLIC "-//W3C//DTD SVG 20010904//EN"
 "http://www.w3.org/TR/2001/REC-SVG-20010904/DTD/svg10.dtd">
<svg version="1.0" xmlns="http://www.w3.org/2000/svg"
 width="256.000000pt" height="256.000000pt" viewBox="0 0 256.000000 256.000000"
 preserveAspectRatio="xMidYMid meet">

<g transform="translate(0.000000,256.000000) scale(0.100000,-0.100000)"
fill="#000000" stroke="none">
<path d="M390 1781 c-76 -23 -146 -89 -183 -170 -26 -56 -30 -187 -8 -241 26
-62 72 -121 119 -151 l46 -29 -50 0 c-40 0 -55 -5 -72 -23 -20 -21 -22 -34
-22 -139 0 -171 -35 -158 421 -158 435 0 442 1 528 96 l51 56 0 -69 c0 -47 3
-63 10 -53 5 8 10 10 10 4 0 -22 54 -34 154 -34 150 0 150 -1 156 179 l5 140
106 -147 c95 -133 108 -147 138 -150 19 -2 40 3 49 12 10 8 60 76 112 150 l95
136 8 -128 c4 -70 10 -136 12 -148 7 -33 48 -44 159 -44 160 0 146 -44 146
460 0 407 -1 421 -20 440 -18 18 -33 20 -140 20 -101 0 -123 -3 -137 -18 -10
-9 -76 -99 -146 -200 -71 -100 -130 -182 -132 -182 -2 0 -64 87 -139 194 -74
106 -143 196 -151 200 -9 3 -68 6 -131 6 -99 0 -117 -3 -133 -19 -27 -27 -35
-123 -28 -303 4 -82 5 -148 3 -148 -2 0 -16 21 -32 46 -16 25 -47 59 -68 75
l-40 29 33 0 c34 0 71 15 83 34 4 6 8 64 8 129 0 172 41 157 -417 156 -208 0
-389 -4 -403 -8z m752 -148 l0 -88 -348 -3 c-263 -2 -350 -5 -356 -15 -12 -19
-9 -84 5 -95 8 -7 115 -12 304 -14 l291 -3 43 -30 c148 -104 127 -351 -36
-426 -37 -17 -71 -19 -397 -19 l-358 0 0 90 0 90 343 0 c253 0 346 3 355 12
16 16 16 80 0 96 -9 9 -84 12 -278 12 -161 0 -281 4 -305 11 -52 14 -126 90
-143 145 -26 90 -11 179 44 251 52 68 49 67 459 73 204 3 372 4 373 3 2 -1 4
-41 4 -90z m498 -133 c84 -122 157 -223 161 -226 4 -2 79 97 165 221 l158 225
93 0 93 0 0 -390 0 -390 -85 0 -85 0 0 240 c0 132 -3 240 -7 240 -5 0 -80
-104 -168 -230 -88 -127 -160 -230 -160 -230 -1 0 -73 103 -161 230 -87 126
-162 229 -166 230 -5 0 -8 -108 -8 -240 l0 -240 -85 0 -85 0 0 390 0 390 93 0
93 0 154 -220z"/>
</g>
</svg>
